<svg width="25" height="25" viewBox="0 0 25 25" fill="none" xmlns="http://www.w3.org/2000/svg">
<g clip-path="url(#clip0_95_2154)">
<path d="M23.0582 15.2414H23.0244C22.7937 15.2323 22.5761 15.1321 22.4193 14.9626C22.2625 14.7931 22.1793 14.5684 22.1882 14.3377L22.5257 5.81016L13.9982 6.14766C13.5219 6.15891 13.1132 5.79141 13.0944 5.31141C13.0757 4.83141 13.4507 4.42641 13.9307 4.40766L23.3994 4.03266C23.6394 4.02516 23.8757 4.11516 24.0482 4.28766C24.2207 4.46016 24.3107 4.69641 24.3032 4.93641L23.9282 14.4052C23.9191 14.6299 23.8235 14.8424 23.6613 14.9982C23.4992 15.1541 23.2831 15.2412 23.0582 15.2414Z" fill="white"/>
<path d="M1.17347 20.6233C0.970965 20.6233 0.772215 20.5558 0.607215 20.4133C0.243465 20.1021 0.202215 19.5508 0.513465 19.1871L6.26222 12.4933C6.41972 12.3096 6.65222 12.1971 6.89597 12.1896C7.13596 12.1783 7.37597 12.2758 7.54471 12.4521L11.0585 16.0521L22.8185 4.29207C23.1597 3.95082 23.7072 3.95082 24.0485 4.29207C24.3897 4.63332 24.3897 5.18082 24.0485 5.52207L11.666 17.9046C11.5047 18.0658 11.2835 18.1596 11.051 18.1596H11.0472C10.8147 18.1596 10.5935 18.0621 10.4322 17.8971L6.96722 14.3458L1.83346 20.3196C1.66096 20.5183 1.41721 20.6233 1.17347 20.6233Z" fill="white"/>
</g>
<defs>
<clipPath id="clip0_95_2154">
<rect width="24" height="24" fill="white" transform="translate(0.302734 0.328125)"/>
</clipPath>
</defs>
</svg>
